<svg width="894" height="487" viewBox="0 0 894 487" fill="none" xmlns="http://www.w3.org/2000/svg">
<path d="M894 38.7835V478.655L4.57764e-05 486.482L209.931 15.4824L894 38.7835Z" fill="#F7D0DA"/>
<path d="M350.137 34.9029L333.851 50.9714L293.336 1.00006V76.1831L246.43 51.7502V72.3764" stroke="#212121" stroke-width="2" stroke-miterlimit="10" stroke-linecap="round" stroke-linejoin="round"/>
<path d="M61.336 378.878L83.0342 392.455L29.8188 459.984L99.9434 439.174L97.5793 472.271L137.308 451.146L144.508 465.968" stroke="#212121" stroke-width="2" stroke-miterlimit="10" stroke-linecap="round" stroke-linejoin="round"/>
<path d="M561.341 286.665C561.341 286.665 593.206 269.387 594.782 264.659C596.357 259.931 594.782 192.599 594.782 192.599H619.9C619.9 192.599 619.9 261.183 619.9 270.014C619.9 278.844 597.056 286.665 597.056 286.665H561.341Z" fill="#EF5AC1"/>
<path d="M150.001 49.4166L1117.22 389.851V432.406L104.414 49.4166H150.001Z" fill="#212121"/>
<path d="M1117.22 432.405L104.414 49.4166V92.9478L1117.22 491.509V432.405Z" fill="white"/>
<path d="M106.405 52.299V91.5913L1115.22 488.585V433.782L106.405 52.299ZM104.414 49.4166L1117.22 432.405V491.509L104.414 92.9478V49.4166Z" fill="#212121"/>
<path d="M592.491 347.393V357.314C592.491 367.931 583.885 376.539 573.269 376.539H94.4324C83.8169 376.539 75.2119 367.931 75.2119 357.314V347.393" stroke="#212121" stroke-width="4" stroke-miterlimit="10" stroke-linecap="round" stroke-linejoin="round"/>
<path d="M374.365 150.423C374.365 128.044 356.226 109.902 333.851 109.902C311.475 109.902 293.336 128.044 293.336 150.423C293.336 172.802 311.475 190.944 333.851 190.944V237.628" stroke="#212121" stroke-width="4" stroke-miterlimit="10" stroke-linecap="round" stroke-linejoin="round"/>
<path d="M320.854 231.913H346.848V243.345H320.854V231.913Z" fill="#212121"/>
<path d="M66.3331 344.481C81.8432 333.376 236.991 301.117 259.481 286.38C281.97 271.643 287.399 255.355 292.827 248.375C298.256 241.394 333.851 241.394 333.851 241.394C333.851 241.394 369.446 241.394 374.874 248.375C380.302 255.356 385.731 271.643 408.221 286.38C430.71 301.117 585.858 333.376 601.368 344.481C616.879 355.585 616.614 365.591 611.185 370.245C611.185 370.245 399.69 288.708 333.851 288.708C268.011 288.708 56.5162 370.245 56.5162 370.245C51.0879 365.592 50.823 355.585 66.3331 344.481Z" fill="#212121"/>
<path d="M514.676 351.19H538.118V405.083H514.676V351.19Z" fill="#212121"/>
<path d="M499.454 413.306V389.86H553.339V413.306H499.454Z" fill="#212121"/>
<path d="M129.583 351.19H153.025V405.083H129.583V351.19Z" fill="#212121"/>
<path d="M114.362 413.306V389.86H168.246V413.306H114.362Z" fill="#212121"/>
<path d="M183.253 331.61L203.195 330.816L217.824 351.406L217.589 355.239L204.924 372.979L141.272 410.362L118.116 369.285L118.351 365.451L183.253 331.61ZM202.691 350.235C204.524 350.037 205.862 348.39 205.663 346.543C205.465 344.71 203.806 343.373 201.972 343.57C200.125 343.769 198.802 345.428 198.999 347.262C199.198 349.11 200.844 350.435 202.691 350.235Z" fill="#212121"/>
<path d="M183.488 327.777L203.429 326.983L217.823 351.406L205.158 369.146L141.506 406.528L118.35 365.451L183.488 327.777ZM202.926 346.402C204.759 346.204 206.097 344.556 205.898 342.71C205.7 340.876 204.041 339.539 202.207 339.737C200.36 339.936 199.037 341.594 199.234 343.429C199.433 345.276 201.079 346.601 202.926 346.402Z" fill="#EF5AC1"/>
<path d="M335.726 205.851C356.619 217.771 349.317 248.504 333.852 266.317C311.135 292.479 269.334 309.735 260.03 324.835C243.034 352.418 216.406 354.994 202.142 346.026C199.989 344.673 201.665 342.725 201.665 342.725" stroke="white" stroke-miterlimit="10" stroke-linecap="round"/>
<path d="M212.486 342.073C222.469 342.979 234.468 341.741 244.658 330.486C276.28 295.56 292.173 234.57 306.18 213.97C313.271 203.54 320.853 201.354 331.786 204.604" stroke="white" stroke-miterlimit="10" stroke-linecap="round"/>
<path d="M153.207 380.284C152.8 380.426 152.441 380.509 152.125 380.535C151.809 380.56 151.541 380.566 151.322 380.548C151.102 380.531 150.907 380.499 150.74 380.453L149.765 378.348C150.166 378.514 150.621 378.597 151.126 378.594C151.633 378.591 152.103 378.462 152.538 378.203C152.974 377.945 153.26 377.712 153.399 377.504C153.538 377.297 153.533 377.071 153.388 376.826C153.234 376.564 152.99 376.407 152.66 376.352C152.331 376.298 151.818 376.301 151.124 376.359C150.871 376.377 150.653 376.387 150.469 376.389C150.286 376.391 150.027 376.368 149.693 376.319C149.359 376.272 149.063 376.19 148.803 376.076C148.544 375.961 148.267 375.78 147.973 375.53C147.678 375.281 147.424 374.979 147.211 374.62C146.057 372.677 146.576 371.054 148.769 369.753C149.118 369.546 149.468 369.388 149.818 369.28C150.169 369.17 150.458 369.108 150.684 369.091C150.91 369.075 151.129 369.083 151.343 369.114C151.556 369.146 151.696 369.173 151.761 369.197C151.827 369.22 151.877 369.24 151.909 369.258L152.435 371.076C152.075 370.951 151.699 370.922 151.308 370.989C150.916 371.056 150.577 371.174 150.289 371.345C149.592 371.759 149.372 372.183 149.631 372.618C149.698 372.733 149.782 372.823 149.881 372.89C149.979 372.958 150.101 372.999 150.244 373.018C150.386 373.037 150.517 373.047 150.633 373.051C150.75 373.055 150.906 373.053 151.103 373.042C151.3 373.033 151.45 373.031 151.555 373.034C152.55 372.9 153.372 372.953 154.019 373.194C154.666 373.436 155.188 373.888 155.581 374.552C156.221 375.629 156.443 376.609 156.246 377.486C156.051 378.364 155.449 379.102 154.442 379.699C154.024 379.949 153.612 380.144 153.207 380.284Z" fill="white"/>
<path d="M164.169 371.63L161.852 373.006L162.447 374.717L160.047 376.141L157.25 365.758L156.66 365.213L160.031 363.212L168.439 371.161L165.443 372.939L164.169 371.63ZM161.197 371.144L162.781 370.204L159.798 367.15L161.197 371.144Z" fill="white"/>
<path d="M165.526 359.952L168.228 358.347L172.609 365.727L175.041 364.283L176.34 366.471L171.206 369.518L165.526 359.952Z" fill="white"/>
<path d="M179.548 364.567L173.868 355.001L179.533 351.638L180.513 353.662L177.666 355.242L178.761 357.086L180.964 355.778L182.098 357.688L179.798 358.833L181.087 361.005L184.124 359.091L185.335 361.132L179.548 364.567Z" fill="white"/>
<path d="M590.62 301.607C590.62 301.607 569.62 300.711 527.62 308.771C485.62 316.831 377.619 297.13 356.618 301.607L473.984 377.452L590.62 301.607Z" fill="#3584F3"/>
<path d="M738.259 396.429V406.35C738.259 416.968 729.653 425.575 719.037 425.575H240.201C229.585 425.575 220.979 416.968 220.979 406.35V396.429" stroke="#212121" stroke-width="4" stroke-miterlimit="10" stroke-linecap="round" stroke-linejoin="round"/>
<path d="M520.133 199.46C520.133 177.081 501.994 158.939 479.619 158.939C457.243 158.939 439.104 177.081 439.104 199.46C439.104 221.839 457.243 239.981 479.619 239.981V286.665" stroke="#212121" stroke-width="4" stroke-miterlimit="10" stroke-linecap="round" stroke-linejoin="round"/>
<path d="M466.622 280.949H492.617V292.38H466.622V280.949Z" fill="#212121"/>
<path d="M212.102 393.518C227.612 382.413 382.76 350.154 405.25 335.417C427.739 320.68 433.168 304.392 438.596 297.412C444.025 290.431 479.62 290.431 479.62 290.431C479.62 290.431 515.215 290.431 520.643 297.412C526.071 304.393 531.5 320.68 553.99 335.417C576.48 350.154 731.627 382.413 747.138 393.518C762.648 404.622 762.383 414.628 756.954 419.282C756.954 419.282 545.459 337.745 479.62 337.745C413.78 337.745 202.285 419.282 202.285 419.282C196.857 414.628 196.592 404.621 212.102 393.518Z" fill="#212121"/>
<path d="M660.444 400.227H683.886V454.12H660.444V400.227Z" fill="#212121"/>
<path d="M645.223 462.343V438.897H699.108V462.343H645.223Z" fill="#212121"/>
<path d="M275.353 400.227H298.794V454.12H275.353V400.227Z" fill="#212121"/>
<path d="M260.131 462.342V438.896H314.015V462.342H260.131Z" fill="#212121"/>
<path d="M636.621 339.217C636.621 339.217 724.622 375.046 754.622 386.682C784.623 398.318 824.622 618.604 840.622 636.514C840.622 636.514 760.622 675.915 726.621 679.496L738.621 1000.07C738.621 1000.07 538.62 1017.98 458.619 1016.19C378.618 1014.4 378.618 1014.4 378.618 1014.4L230.618 1016.32V668.75C230.618 668.75 146.617 663.681 118.617 650.097C118.617 650.097 166.617 428.212 172.617 412.37C178.617 396.528 308.618 339.529 308.618 339.529L473.984 377.452L636.621 339.217Z" fill="#75AFFF"/>
<path d="M590.62 301.607L473.984 377.452L530.302 415.765L636.621 339.217L590.62 301.607Z" fill="white"/>
<path d="M473.984 377.452L356.618 301.607L308.618 339.53L404.619 415.765L473.984 377.452Z" fill="white"/>
<path d="M590.62 301.607L473.984 377.452L530.302 415.765L636.621 339.217L590.62 301.607Z" stroke="#212121" stroke-width="2" stroke-miterlimit="10" stroke-linecap="round" stroke-linejoin="round"/>
<path d="M473.984 377.452L356.618 301.607L308.618 339.53L404.619 415.765L473.984 377.452Z" stroke="#212121" stroke-width="2" stroke-miterlimit="10" stroke-linecap="round" stroke-linejoin="round"/>
<path d="M473.984 377.452L473.619 435.677" stroke="#212121" stroke-width="2" stroke-miterlimit="10" stroke-linecap="round" stroke-linejoin="round"/>
<path d="M729.271 415.765C729.271 415.765 702.621 461.081 702.621 471.786C702.621 482.492 707.271 559.503 715.946 593.53C724.621 627.558 726.621 679.495 726.621 679.495" stroke="#212121" stroke-width="2" stroke-miterlimit="10" stroke-linecap="round" stroke-linejoin="round"/>
<path d="M230.618 668.75C230.618 668.75 238.618 546.966 244.618 521.893C250.618 496.82 240.618 442.615 230.618 425.839" stroke="#212121" stroke-width="2" stroke-miterlimit="10" stroke-linecap="round" stroke-linejoin="round"/>
<path d="M859.503 566.059L354.834 452.519C354.834 452.519 346.07 494.748 346.903 526.654L836.961 636.906C836.961 636.906 849.465 610.691 859.503 566.059Z" fill="#F2484D"/>
<path d="M857.455 507.778L855.278 517.457C852.949 527.815 842.664 534.324 832.307 531.994L365.144 426.892C354.787 424.562 348.279 414.275 350.61 403.917L352.787 394.238" stroke="#212121" stroke-width="4" stroke-miterlimit="10" stroke-linecap="round" stroke-linejoin="round"/>
<path d="M687.867 267.733C692.777 245.9 679.061 224.219 657.231 219.307C635.401 214.396 613.724 228.114 608.813 249.948C603.903 271.782 617.618 293.463 639.449 298.374L629.206 343.92" stroke="#212121" stroke-width="4" stroke-miterlimit="10" stroke-linecap="round" stroke-linejoin="round"/>
<path d="M617.77 335.472L643.131 341.179L640.622 352.332L615.262 346.625L617.77 335.472Z" fill="#212121"/>
<path d="M344.763 389.448C362.332 382.019 520.776 384.601 545.951 375.159C571.126 365.718 579.996 351.018 586.824 345.4C593.653 339.781 628.379 347.594 628.379 347.594C628.379 347.594 663.106 355.407 666.871 363.409C670.636 371.411 672.358 388.493 691.066 407.807C709.774 427.122 854.06 492.648 866.756 506.885C879.451 521.123 876.997 530.827 870.681 534.177C870.681 534.177 682.232 408.205 617.998 393.754C553.764 379.303 329.533 412.43 329.533 412.43C325.258 406.698 327.195 396.877 344.763 389.448Z" fill="#FDB54E"/>
<path d="M404.993 409.846L427.863 414.993L416.035 467.571L393.165 462.425L404.993 409.846Z" fill="#212121"/>
<path d="M376.491 467.145L381.637 444.271L434.206 456.101L429.061 478.974L376.491 467.145Z" fill="#212121"/>
<path d="M936.775 425.873C929.171 409.874 849.438 428.595 802.557 422.227C755.675 415.859 669.946 406.774 649.515 425.873C629.085 444.971 652.354 545.492 763.99 545.954C875.627 546.418 977.426 511.397 936.775 425.873Z" fill="#159660"/>
<path d="M962.957 477.478C962.957 477.478 760.169 483.903 642.158 455.289C642.158 455.289 670.7 576.019 773.38 576.019C876.059 576.019 931.246 541.914 962.957 477.478Z" fill="#75AFFF"/>
<path d="M834.487 310.534C834.487 288.155 816.348 270.013 793.973 270.013C771.597 270.013 753.458 288.155 753.458 310.534C753.458 332.913 771.597 351.055 793.973 351.055V397.739" stroke="#212121" stroke-width="4" stroke-miterlimit="10" stroke-linecap="round" stroke-linejoin="round"/>
<path d="M780.975 392.024H806.97V403.455H780.975V392.024Z" fill="#212121"/>
<path d="M526.455 504.592C541.965 493.487 697.114 461.229 719.603 446.491C742.093 431.754 747.521 415.466 752.949 408.486C758.377 401.505 793.973 401.505 793.973 401.505C793.973 401.505 829.568 401.505 834.996 408.486C840.424 415.467 845.853 431.754 868.342 446.491C890.832 461.228 1045.98 493.487 1061.49 504.592C1077 515.696 1076.74 525.702 1071.31 530.356C1071.31 530.356 859.812 448.819 793.973 448.819C728.133 448.819 516.638 530.356 516.638 530.356C511.21 525.703 510.945 515.696 526.455 504.592Z" fill="#212121"/>
<path d="M962.957 470.578C962.957 470.578 840.868 532.434 775.699 532.434C710.53 532.434 642.158 455.288 642.158 455.288L583.804 493.861V1034.95C583.804 1034.95 675.052 1058.05 750.14 1070.88C825.228 1083.72 939.925 1058.05 939.925 1058.05L962.957 470.578Z" fill="white"/>
<path d="M649.516 425.873C649.516 425.873 678.19 602.967 672.977 644.032C667.764 685.097 686.01 1236.91 686.01 1236.91C686.01 1236.91 687.069 1235.73 642.753 1261.4C598.439 1287.07 529.604 1285.68 529.604 1285.68C529.604 1285.68 548.068 1049.55 546.656 987.952C546.656 987.952 477.469 967.42 461.828 957.153C461.828 957.153 500.93 777.493 500.93 731.294C500.93 685.096 517.418 531.101 514.387 515.702C511.357 500.304 629.429 438.415 649.516 425.873Z" fill="#19B573"/>
<path d="M596.676 286.665C596.676 286.665 564.811 269.387 563.235 264.659C561.66 259.931 563.235 192.599 563.235 192.599H538.117C538.117 192.599 538.117 261.183 538.117 270.014C538.117 278.844 560.96 286.665 560.96 286.665H596.676Z" fill="#EF5AC1"/>
<path d="M508 49.4824H644.668V201.391H508V49.4824Z" fill="#EF5AC1"/>
<path d="M549.468 122.626C548.027 122.333 546.819 121.949 545.844 121.472C544.869 120.996 544.072 120.541 543.455 120.107C542.837 119.674 542.323 119.24 541.911 118.807L542.723 110.908C543.612 112.1 544.803 113.134 546.298 114.012C547.793 114.89 549.407 115.328 551.141 115.328C552.874 115.328 554.125 115.145 554.894 114.776C555.663 114.407 556.048 113.735 556.048 112.76C556.048 111.72 555.609 110.832 554.732 110.095C553.855 109.358 552.343 108.47 550.198 107.429C549.418 107.039 548.757 106.688 548.216 106.373C547.674 106.06 546.953 105.54 546.055 104.813C545.156 104.087 544.424 103.329 543.861 102.538C543.298 101.747 542.799 100.729 542.366 99.4824C541.933 98.2363 541.716 96.8986 541.716 95.4684C541.716 87.7322 546.082 83.8641 554.813 83.8641C556.199 83.8641 557.505 84.0107 558.729 84.3033C559.953 84.5958 560.912 84.9158 561.605 85.2618C562.298 85.6085 562.932 86.0152 563.506 86.4811C564.08 86.9477 564.443 87.2728 564.595 87.4562C564.746 87.6404 564.855 87.7871 564.92 87.8947L563.295 94.1682C562.45 93.1721 561.393 92.4295 560.126 91.9419C558.858 91.4544 557.65 91.2109 556.502 91.2109C553.728 91.2109 552.342 92.0777 552.342 93.8113C552.342 94.2664 552.428 94.6781 552.602 95.0465C552.775 95.4156 553.057 95.7515 553.447 96.0542C553.837 96.3583 554.199 96.6183 554.536 96.8343C554.871 97.051 555.337 97.3168 555.933 97.631C556.529 97.946 556.978 98.2002 557.282 98.3953C560.446 99.7388 562.769 101.332 564.253 103.173C565.737 105.015 566.48 107.258 566.48 109.902C566.48 114.193 565.424 117.459 563.311 119.702C561.199 121.945 558.138 123.066 554.131 123.066C552.463 123.064 550.909 122.918 549.468 122.626Z" fill="#091C3E"/>
<path d="M596.868 116.303H587.639L586.404 122.382H576.849L586.761 86.9189L585.981 84.2859H599.403L610.258 122.382H598.331L596.868 116.303ZM588.971 109.672H595.276L591.831 95.4677L588.971 109.672Z" fill="#091C3E"/>
<path d="M547.551 127.626H558.309V157.011H567.994V165.722H547.551V127.626Z" fill="#091C3E"/>
<path d="M580.765 165.722V127.626H603.32L602.67 135.297L591.523 134.972V142.318H600.297V149.924L591.523 149.274V157.921L603.807 157.596V165.722H580.765Z" fill="#091C3E"/>
<path d="M515.674 58.0117H636.995V192.863H515.674V58.0117Z" stroke="white" stroke-width="2" stroke-miterlimit="10" stroke-linecap="round" stroke-linejoin="round"/>
</svg>
